# xmcd
# Track frame offsets:
# 150
# 18509
# 32470
# 52290
# 66616
# 80506
# 96532
# 115587
# 132494
# 144492
#
# Disc length: 2141 seconds
# Revision: 0
# Processed by: cddbd v1.4PL0 Copyright (c) Steve Scherf et al.
# Submitted via: VisiTrax 2.9.5.180 - For more info visit www.synapsa.com
#
DISCID=93085b0a
DTITLE=Nathan Price - 8 Second school
DYEAR=1999
DGENRE=
TTITLE0=Stronger and stronger
TTITLE1=8 Second school
TTITLE2=Meet me on the other side
TTITLE3=She believes in me
TTITLE4=Outside the fire
TTITLE5=Air that I breathe
TTITLE6=Call it love
TTITLE7=Look to the future
TTITLE8=I was there for you
TTITLE9=Don't walk away
EXTD=
EXTT0=
EXTT1=
EXTT2=
EXTT3=
EXTT4=
EXTT5=
EXTT6=
EXTT7=
EXTT8=
EXTT9=
PLAYORDER=
